<svg width="385" height="338" viewBox="0 0 385 338" fill="none" xmlns="http://www.w3.org/2000/svg">
<path d="M335.52 388.94V340.33H333.95H286.9V291.71H285.33H238.29V243.09H236.71H189.66V194.47H236.71H238.29V145.85H285.33H286.9V97.23H333.95H335.52V48.62H382.56H384.14V0H382.56H335.52H333.95V48.62H286.9H285.33V97.23H238.29H236.71V145.85H189.66H188.09V194.47H141.05V145.85H139.47H92.43V97.23H90.85H43.81V48.62H42.23H-4.81V0H-6.38H-53.42H-55V48.62H-53.42H-6.38V97.23H-4.81H42.23V145.85H43.81H90.85V194.47H92.43H139.47V243.09H92.43H90.85V291.71H43.81H42.23V340.33H-4.81H-6.38V388.94H-53.42H-55V397.56H-53.42H-6.38H-4.81V388.94H42.23H43.81V340.33H90.85H92.43V291.71H139.47H141.05V243.09H188.09V291.71H189.66H236.71V340.33H238.29H285.33V388.94H286.9H333.95V397.56H335.52H382.56H384.14V388.94H382.56H335.52Z" fill="#444444" style="fill:#444444;fill:color(display-p3 0.2667 0.2667 0.2667);fill-opacity:1;"/>
</svg>
