<svg width="535" height="117" viewBox="0 0 535 117" fill="none" xmlns="http://www.w3.org/2000/svg">
<path d="M22.12 38.7098C28.01 38.7098 31.26 35.7998 32.12 29.3098H44.04C42.91 42.4898 35.5 48.6498 22.39 48.6498C7.55 48.6398 0 40.5598 0 24.4698C0 8.3798 7.42 0.299805 21.52 0.299805C34.04 0.299805 40.92 6.52981 42.05 19.6398H30.13C29.27 13.1498 26.55 10.2398 21.26 10.2398C15.17 10.2398 11.92 14.8798 11.92 24.4798C11.92 34.0798 15.3 38.7198 22.12 38.7198" fill="white" style="fill:white;fill-opacity:1;"/>
<path d="M69.74 0.299805C84.44 0.299805 92.72 8.3798 92.72 24.4698C92.72 40.5598 84.44 48.6398 69.74 48.6398C55.04 48.6398 46.69 40.5598 46.69 24.4698C46.69 8.3798 54.97 0.299805 69.74 0.299805ZM69.74 38.7098C77.22 38.7098 81.46 34.0698 81.46 24.4698C81.46 14.8698 77.22 10.2298 69.74 10.2298C62.26 10.2298 57.95 14.8698 57.95 24.4698C57.95 34.0698 62.19 38.7098 69.74 38.7098Z" fill="white" style="fill:white;fill-opacity:1;"/>
<path d="M97.02 47.65V1.29004H108.28V37.72H128.35V47.65H97.02Z" fill="white" style="fill:white;fill-opacity:1;"/>
<path d="M152.39 0.299805C167.09 0.299805 175.37 8.3798 175.37 24.4698C175.37 40.5598 167.09 48.6398 152.39 48.6398C137.69 48.6398 129.34 40.5598 129.34 24.4698C129.34 8.3798 137.62 0.299805 152.39 0.299805ZM152.39 38.7098C159.87 38.7098 164.11 34.0698 164.11 24.4698C164.11 14.8698 159.87 10.2298 152.39 10.2298C144.91 10.2298 140.6 14.8698 140.6 24.4698C140.6 34.0698 144.84 38.7098 152.39 38.7098Z" fill="white" style="fill:white;fill-opacity:1;"/>
<path d="M217.56 47.65H196.1L192.13 4.48004H190.93V47.65H179.68V1.29004H202.26L206.23 46.66H207.42L211.4 1.29004H233.98V47.65H222.72V4.48004H221.53L217.56 47.65Z" fill="white" style="fill:white;fill-opacity:1;"/>
<path d="M239.35 47.65V1.29004H255.57C268.95 1.29004 272.66 5.59004 272.66 13.14C272.66 18.64 269.55 22.88 259.55 22.88V24.2C273.06 24.2 276.64 27.98 276.64 35.06C276.64 43.14 272.93 47.64 259.55 47.64H239.35V47.65ZM250.6 18.84H255.57C260.07 18.84 261.4 18.11 261.4 15.06C261.4 12.01 260.08 11.22 255.57 11.22H250.6V18.84ZM250.6 37.72H259.54C264.04 37.65 265.37 36.73 265.37 33.22C265.37 29.71 264.04 28.78 259.54 28.78H250.6V37.72Z" fill="white" style="fill:white;fill-opacity:1;"/>
<path d="M279.35 1.29004H313.12V11.03H301.8V37.91H313.12V47.65H279.35V37.91H290.67V11.03H279.35V1.29004Z" fill="white" style="fill:white;fill-opacity:1;"/>
<path d="M315.58 47.65L327.3 1.29004H349.29L360.95 47.65H349.36L345.98 33.15H330.48L327.17 47.65H315.58ZM332.73 23.21H343.72L338.89 4.48004H337.57L332.74 23.21H332.73Z" fill="white" style="fill:white;fill-opacity:1;"/>
<path d="M0 67.3298H14.44V104.27H25.86V67.3298H40.3V57.2598H0V67.3298Z" fill="white" style="fill:white;fill-opacity:1;"/>
<path d="M43.72 104.27H76.83V94.3998H54.94V85.7298H74.81V75.7898H54.94V67.1298H76.83V57.2598H43.72V104.27Z" fill="white" style="fill:white;fill-opacity:1;"/>
<path d="M102.35 95.2C95.43 95.2 92.01 90.5 92.01 80.76C92.01 71.02 95.3 66.32 101.48 66.32C106.85 66.32 109.61 69.28 110.48 75.86H122.57C121.43 62.56 114.44 56.25 101.75 56.25C87.45 56.25 79.92 64.44 79.92 80.76C79.92 97.08 87.58 105.27 102.62 105.27C115.92 105.27 123.44 99.02 124.58 85.66H112.49C111.62 92.24 108.33 95.2 102.35 95.2Z" fill="white" style="fill:white;fill-opacity:1;"/>
<path d="M158.56 57.2598V75.7298H139.76V57.2598H128.34V104.27H139.76V85.7998H158.56V110.33H162.31C168.75 110.33 174.02 105.06 174.02 98.6198V98.5998C173.97 96.2698 173.59 93.9598 172.91 91.7398C170.81 84.8698 166.19 68.7798 165.93 59.2898L165.87 57.2598H158.56Z" fill="white" style="fill:white;fill-opacity:1;"/>
<mask id="mask0_2_3523" style="mask-type:luminance" maskUnits="userSpaceOnUse" x="152" y="51" width="231" height="65">
<path d="M152.39 115.849H382.46V95.0095V83.7995V51.6895H152.39V115.849Z" fill="white" style="fill:white;fill-opacity:1;"/>
</mask>
<g mask="url(#mask0_2_3523)">
<path d="M205.45 56.3599C211.2 56.3599 212.53 52.6699 214.58 52.6699C216.94 52.6699 217.66 58.3099 217.66 61.6999C217.66 68.5799 215.3 73.2999 208.63 73.2999C199.6 73.2999 188.62 63.5499 180.62 63.5499C176.31 63.5499 174.46 65.6999 174.46 68.9899C174.46 77.9199 192.93 82.2299 198.68 82.2299C206.89 82.2299 209.87 79.0499 212.12 79.0499C213.15 79.0499 213.97 79.7699 213.97 82.0299C213.97 89.7299 212.33 94.9599 205.97 94.9599C198.89 94.9599 191.6 82.5399 185.24 82.5399C182.57 82.5399 181.14 84.6899 181.14 87.3599C181.14 100.8 205.15 106.45 205.15 115.27C205.15 117.63 203.71 119.27 200.12 119.27C195.71 119.27 189.86 118.35 184.52 118.45C179.8 118.45 176.82 119.07 173.85 119.07C172.52 119.07 171.9 118.45 171.9 117.43C171.9 116.81 172.21 115.99 173.03 115.28C176.42 112 179.8 106.66 179.8 101.02C179.8 87.7799 170.56 73.8299 170.56 64.4899C170.56 56.6899 174.77 53.6099 181.85 53.6099C188.21 53.6099 198.68 56.3799 205.45 56.3799V56.3599Z" fill="#FFDA35" style="fill:#FFDA35;fill:color(display-p3 1.0000 0.8549 0.2078);fill-opacity:1;"/>
<path d="M216.64 86.1195C216.64 61.0795 224.13 53.3795 236.55 53.3795C240.65 53.3795 247.43 55.9495 251.94 55.9495C257.38 55.9495 258.51 52.7695 260.35 52.7695C262.81 52.7695 263.63 58.3095 263.63 62.2095C263.63 68.6695 261.17 72.5695 254.39 72.5695C245.56 72.5695 237.15 63.6395 228.32 63.6395C224.93 63.6395 221.65 65.6895 221.65 69.8995C221.65 78.4195 234.79 82.4195 243.61 82.4195C251 82.4195 253.97 79.0295 255.92 79.0295C256.95 79.0295 257.46 79.5395 257.46 81.2895C257.46 89.8095 256.33 94.9395 250.89 94.9395C242.99 94.9395 239.6 83.1395 229.24 83.2395C225.24 83.1395 222.78 86.2195 222.78 90.6295C222.78 98.1195 229.96 106.13 241.46 106.13C255.31 106.13 257.98 96.6895 261.68 96.6895C263.22 96.6895 264.25 98.5395 264.25 102.44C264.25 113.21 254.81 119.99 244.24 119.99C226.18 119.99 216.64 109.01 216.64 86.1295V86.1195Z" fill="#FFDA35" style="fill:#FFDA35;fill:color(display-p3 1.0000 0.8549 0.2078);fill-opacity:1;"/>
<path d="M310.84 58.2001C312.58 58.1001 313.1 59.2301 313.1 61.0701C313.1 66.0001 308.89 73.7901 305.1 73.7901C298.53 73.7901 291.45 59.5301 281.91 59.5301C279.04 59.5301 277.09 61.1701 277.09 64.5601C277.09 78.6201 312.49 79.8501 312.49 100.48C312.49 111.15 305.72 119.67 290.43 119.67C271.04 119.67 266.21 111.05 266.21 103.66C266.21 97.6101 270.31 92.6801 276.06 92.6801C278.01 92.6801 278.52 93.5001 278.73 95.1401C279.24 102.12 284.17 107.97 297.51 107.97C305.41 107.97 309.52 105.92 309.52 100.89C309.52 95.8601 305.21 93.8101 293.82 91.4501C275.14 87.6501 266.93 84.8801 266.93 73.3901C266.93 63.1301 276.88 52.8701 287.45 52.8701C298.02 52.8701 305.2 58.4101 310.85 58.2101L310.84 58.2001Z" fill="#FFDA35" style="fill:#FFDA35;fill:color(display-p3 1.0000 0.8549 0.2078);fill-opacity:1;"/>
<path d="M332.49 100.69C332.49 110.03 334.34 117.01 340.08 117.01C346.54 117.01 346.85 111.26 348.39 91.66C348.6 88.17 349.83 87.25 350.96 87.25C353.11 87.25 353.53 89.92 357.12 94.33C360.4 98.33 361.84 100.08 361.84 102.85C361.84 114.55 350.14 119.99 338.75 119.99C323.97 119.99 315.87 115.27 315.87 102.96C315.87 87.88 334.85 75.97 334.85 66.22C334.85 63.65 333.41 62.32 330.54 62.32C323.77 62.32 319.87 73.2 316.17 73.2C314.63 73.2 313.81 72.48 313.81 70.84C313.81 69.71 314.32 65.81 314.32 63.35C314.32 60.89 313.7 58.12 313.7 56.58C313.7 54.84 314.01 53.5 316.57 53.5C321.7 53.5 329.19 54.32 338.63 54.32C346.43 54.32 357.82 53.6 359.46 53.6C361.72 53.6 362.74 54.83 362.74 56.78C362.74 64.07 357.61 74.53 353.81 74.53C349.19 74.53 347.96 64.88 342.32 64.88C336.68 64.88 332.47 80.79 332.47 100.69H332.49Z" fill="#FFDA35" style="fill:#FFDA35;fill:color(display-p3 1.0000 0.8549 0.2078);fill-opacity:1;"/>
</g>
<path d="M299.33 106.42C302.478 106.42 305.03 103.868 305.03 100.72C305.03 97.5715 302.478 95.0195 299.33 95.0195C296.182 95.0195 293.63 97.5715 293.63 100.72C293.63 103.868 296.182 106.42 299.33 106.42Z" fill="#FFDA35" style="fill:#FFDA35;fill:color(display-p3 1.0000 0.8549 0.2078);fill-opacity:1;"/>
<path d="M181.64 74.6101C184.33 74.6101 186.51 72.4297 186.51 69.7401C186.51 67.0505 184.33 64.8701 181.64 64.8701C178.95 64.8701 176.77 67.0505 176.77 69.7401C176.77 72.4297 178.95 74.6101 181.64 74.6101Z" fill="#FFDA35" style="fill:#FFDA35;fill:color(display-p3 1.0000 0.8549 0.2078);fill-opacity:1;"/>
<path d="M534.68 64.6904C534.41 64.5604 534.45 64.8004 534.44 64.9203C534.31 66.7203 533.92 68.4703 533.59 70.2403C533.08 72.9804 532.24 75.6304 531.32 78.2504C530.43 80.7603 529.31 83.1804 528.05 85.5303C527.6 86.3604 527.21 87.2404 526.61 87.9804C526.28 88.0204 526.22 88.2004 526.36 88.4804C526.23 88.6304 526.23 88.8803 526 88.9604C525.69 88.8803 525.5 89.1504 525.24 89.2504C525.06 87.8304 525.16 86.4504 525.12 85.0704C525.12 84.7104 524.94 84.3104 525.03 83.9804C525.38 82.7404 525.12 81.4804 525.25 80.2403C525.29 79.8403 525.03 79.4904 525.08 79.1104C525.19 78.2604 525.25 77.4203 525.18 76.5603C525.16 76.3303 525.12 76.1603 524.89 76.0903C524.87 76.0103 524.91 75.9804 524.98 75.9604C525.31 75.9203 525.45 75.6904 525.53 75.4004C525.67 74.8804 525.79 74.3504 525.93 73.8304C525.97 73.6604 525.97 73.5103 525.84 73.3803C526.01 72.8103 526.2 72.2504 526.33 71.6703C526.89 69.3103 527.41 66.9403 527.71 64.5203C527.94 62.7403 528.02 60.9503 528.15 59.1703C528.22 58.1703 528.13 57.1504 528.08 56.1304C527.98 54.0404 527.77 51.9604 527.45 49.8904C527.09 47.5704 526.53 45.3004 525.87 43.0404C525.29 41.0604 524.49 39.1604 523.75 37.2304C523.98 36.8004 523.6 36.4403 523.62 36.0103C523.69 34.5803 523.61 33.1404 523.69 31.7104C523.72 31.1504 523.51 30.6404 523.59 30.0904C523.79 28.7004 523.69 27.3004 523.57 25.9104C523.5 25.1504 523.68 24.5904 524.15 24.3604C524.85 25.1804 525.4 26.1004 525.94 27.0204C526.48 27.9404 527.07 28.8404 527.59 29.7904C528.49 31.4304 529.33 33.1004 530.09 34.8104C530.99 36.8604 531.73 38.9704 532.39 41.1203C533.12 43.5203 533.69 45.9504 534.07 48.4304C534.22 49.3604 534.43 50.2804 534.44 51.2204C534.44 51.3504 534.4 51.5804 534.68 51.4504V64.6804V64.6904Z" fill="white" style="fill:white;fill-opacity:1;"/>
<path d="M469.97 116.15C470.06 115.89 469.85 115.92 469.71 115.91C466.94 115.68 464.22 115.11 461.54 114.41C458.87 113.71 456.25 112.81 453.71 111.72C452.1 111.02 450.51 110.27 448.97 109.44C446.55 108.14 444.2 106.71 442.02 105.02C442.06 104.74 442.14 104.46 442.14 104.18C442.15 102.67 442.16 101.15 442.14 99.6399C442.14 99.0699 442.4 98.5099 442.24 97.9499C442.08 97.3899 442.29 97.0999 442.78 96.9199C443.22 97.2999 443.64 97.7199 444.1 98.0699C446.29 99.7399 448.51 101.35 450.91 102.72C453.51 104.21 456.21 105.48 459.02 106.51C462.97 107.95 467.02 108.92 471.21 109.33C471.73 109.38 472.29 109.27 472.79 109.53C472.46 110.38 472.76 111.25 472.67 112.11C472.59 112.89 472.61 113.68 472.56 114.47C472.52 115.03 472.92 115.6 472.54 116.16H469.97V116.15Z" fill="white" style="fill:white;fill-opacity:1;"/>
<path d="M472.54 116.15C472.93 115.59 472.53 115.02 472.56 114.46C472.61 113.67 472.59 112.89 472.67 112.1C472.75 111.24 472.46 110.36 472.79 109.52C473.62 109.57 474.44 109.64 475.27 109.65C477.51 109.68 479.75 109.53 481.99 109.31C483.31 109.18 484.62 109.01 485.91 108.77C488.39 108.31 490.83 107.68 493.21 106.83C495.11 106.16 497 105.47 498.81 104.56C499.44 104.24 500.1 103.98 500.72 103.64C500.94 103.83 501.36 103.88 501.31 104.27C501.23 104.88 501.38 105.48 501.35 106.09C501.28 107.29 501.25 108.5 501.23 109.71C501.23 110.16 501.28 110.6 500.69 110.77C500.5 110.82 500.39 111.04 500.37 111.26C498.72 112.14 496.95 112.71 495.2 113.32C492.61 114.23 489.95 114.88 487.26 115.38C486.03 115.61 484.79 115.88 483.52 115.9C483.36 115.9 483.15 115.86 483.21 116.14H472.55L472.54 116.15Z" fill="white" style="fill:white;fill-opacity:1;"/>
<path d="M524.15 24.3705C523.68 24.6105 523.5 25.1605 523.57 25.9205C523.69 27.3105 523.79 28.7105 523.59 30.1005C523.51 30.6505 523.73 31.1605 523.69 31.7205C523.61 33.1505 523.69 34.5905 523.62 36.0205C523.6 36.4505 523.98 36.8105 523.75 37.2405C522.82 35.3805 521.9 33.5105 520.83 31.7205C518.77 28.2605 516.32 25.1105 513.55 22.2005C511.85 20.4205 509.99 18.8005 508.04 17.2905C505.75 15.5205 503.34 13.9505 500.79 12.5805C497.56 10.8405 494.16 9.55055 490.67 8.45055C489.99 7.79055 490.21 6.94055 490.18 6.14055C490.17 5.66055 490.1 5.17055 490.11 4.69055C490.15 3.54055 490.46 2.36055 489.69 1.31055C490.71 1.38055 491.67 1.74055 492.64 2.01055C496.59 3.12055 500.38 4.65055 504 6.59055C506.92 8.15055 509.7 9.92055 512.3 11.9805C513.88 13.2305 515.4 14.5405 516.87 15.9205C518.96 17.8905 520.85 20.0205 522.61 22.2805C523.14 22.9605 523.69 23.6205 524.13 24.3505L524.15 24.3705Z" fill="white" style="fill:white;fill-opacity:1;"/>
<path d="M489.71 1.32977C490.47 2.37977 490.16 3.55977 490.13 4.70977C490.11 5.18977 490.18 5.66977 490.2 6.15977C490.22 6.95977 490.01 7.80977 490.69 8.46977C488.14 7.84977 485.58 7.26977 482.97 6.94977C481.17 6.72977 479.37 6.62977 477.57 6.50977C475.86 6.39977 474.14 6.57977 472.43 6.71977C472.11 6.08977 472.02 5.44977 472.09 4.72977C472.25 3.16977 472.43 1.58977 472.06 0.0297656C475.38 0.0297656 478.71 0.0197656 482.03 0.00976562C482.59 0.199766 483.19 0.159766 483.77 0.239766C485.77 0.529766 487.77 0.769766 489.72 1.33977L489.71 1.32977Z" fill="white" style="fill:white;fill-opacity:1;"/>
<path d="M418.51 63.5101C418.51 59.8901 418.51 56.2701 418.51 52.6401C418.63 51.7801 418.75 50.9201 418.86 50.0501C419.1 48.1301 419.47 46.2301 419.91 44.3401C420.46 41.9901 421.2 39.7101 422.04 37.4501C423.34 33.9401 425.02 30.6101 426.96 27.4201C428.55 24.8001 430.37 22.3301 432.38 20.0201C433.64 18.5801 434.93 17.1501 436.35 15.8401C437.92 14.4101 439.49 12.9901 441.17 11.7001C444.64 9.05012 448.38 6.84012 452.34 4.99012C452.49 4.92012 452.64 4.87012 452.8 4.87012C452.45 5.65012 452.54 6.50012 452.45 7.32012C452.26 9.07012 452.73 10.8301 452.35 12.5801C451.65 12.9901 450.95 13.4101 450.24 13.8201C446.68 15.8801 443.49 18.4301 440.52 21.2701C439.48 22.2601 438.52 23.3401 437.59 24.4401C436.64 25.5801 435.64 26.6801 434.81 27.9301C433.82 29.4001 432.82 30.8701 431.92 32.4001C430.42 34.9601 429.18 37.6301 428.17 40.4001C426.83 44.0401 425.92 47.7901 425.45 51.6501C425.22 53.4901 425.09 55.3401 425.01 57.1901C424.92 59.2901 425.14 61.3901 425.34 63.4901C425.46 64.7901 425.64 66.0901 425.88 67.3601C426.46 70.3901 427.29 73.3601 428.38 76.2501C429.1 78.1701 429.95 80.0401 430.83 81.8801C431.51 83.3101 432.4 84.6701 433.31 86.0001C434.31 87.4501 435.29 88.9101 436.41 90.2701C437.25 91.2801 438.14 92.2501 438.99 93.2401C440.15 94.5801 441.49 95.7101 442.77 96.9101C442.28 97.0901 442.07 97.3901 442.23 97.9401C442.39 98.5001 442.13 99.0601 442.13 99.6301C442.15 101.14 442.14 102.66 442.13 104.17C442.13 104.45 442.05 104.73 442.01 105.01C441.02 104.4 440.14 103.63 439.26 102.89C437.82 101.68 436.4 100.44 435.09 99.0901C431.73 95.6501 428.77 91.8801 426.34 87.7301C423.97 83.6901 422.1 79.4301 420.75 74.9501C420.03 72.5701 419.48 70.1401 419.09 67.6801C418.88 66.3501 418.66 65.0301 418.61 63.6801C418.61 63.6001 418.61 63.5201 418.5 63.5001L418.51 63.5101Z" fill="white" style="fill:white;fill-opacity:1;"/>
<path d="M500.36 111.27C500.38 111.05 500.49 110.83 500.68 110.78C501.26 110.61 501.21 110.17 501.22 109.72C501.24 108.51 501.28 107.31 501.34 106.1C501.37 105.49 501.22 104.89 501.3 104.28C501.35 103.89 500.93 103.85 500.71 103.65C501.46 103.2 502.2 102.75 502.95 102.31C506.36 100.3 509.47 97.8799 512.33 95.1599C514.15 93.4399 515.79 91.5498 517.32 89.5598C519.14 87.1898 520.77 84.6899 522.17 82.0499C523.2 80.1199 524.05 78.1098 524.87 76.0898C525.1 76.1698 525.14 76.3298 525.16 76.5598C525.23 77.4098 525.16 78.2598 525.06 79.1098C525.01 79.4898 525.27 79.8398 525.23 80.2398C525.1 81.4798 525.36 82.7399 525.01 83.9799C524.92 84.3099 525.09 84.6998 525.1 85.0698C525.13 86.4498 525.04 87.8298 525.22 89.2498C525.48 89.1598 525.67 88.8798 525.98 88.9598C525.54 89.9698 524.85 90.8198 524.23 91.7198C522.93 93.5998 521.5 95.3798 519.97 97.0698C518.48 98.7198 516.91 100.29 515.21 101.75C513.49 103.23 511.74 104.67 509.87 105.97C507.02 107.96 503.99 109.62 500.86 111.13C500.7 111.21 500.52 111.23 500.35 111.28L500.36 111.27Z" fill="white" style="fill:white;fill-opacity:1;"/>
<path d="M526.35 88.4697C526.21 88.1897 526.28 88.0197 526.6 87.9697C526.57 88.1597 526.49 88.3297 526.35 88.4697Z" fill="white" style="fill:white;fill-opacity:1;"/>
<path d="M524.98 75.9499C525.19 75.0699 525.49 74.2099 525.84 73.3799C525.97 73.5099 525.97 73.6599 525.93 73.8299C525.79 74.3499 525.67 74.8799 525.53 75.3999C525.45 75.6899 525.32 75.9199 524.98 75.9599V75.9499Z" fill="white" style="fill:white;fill-opacity:1;"/>
<path d="M452.8 4.88C454.45 4 456.22 3.43 457.97 2.81C460.77 1.83 463.65 1.16 466.55 0.63C467.98 0.37 469.43 0.14 470.9 0.11C470.99 0.11 471.11 0.15 471.14 0C471.44 0 471.74 0.01 472.05 0.02C472.42 1.58 472.24 3.16 472.08 4.72C472.01 5.44 472.1 6.08 472.42 6.71C470.05 6.9 467.7 7.28 465.37 7.79C460.8 8.78 456.5 10.45 452.36 12.59C452.73 10.84 452.27 9.08 452.46 7.33C452.55 6.51 452.46 5.66 452.81 4.88H452.8Z" fill="white" style="fill:white;fill-opacity:1;"/>
<path d="M461.02 45.7997C458.35 45.9497 456.03 46.9197 453.97 48.6197C451.61 50.5697 450.2 53.0897 449.66 56.0397C449.05 59.3697 449.93 62.4297 451.81 65.2297C452.52 66.2897 453.57 67.0597 454.21 68.1797C454.86 69.3097 455.24 70.4797 455.41 71.7697C455.65 73.6297 455.29 75.3497 454.43 76.9797C453.28 79.1597 451.42 80.4697 449.06 80.9397C446.58 81.4397 444.18 81.0497 442.08 79.5097C440.38 78.2697 439.36 76.5697 438.98 74.5297C438.52 72.0497 438.95 69.7097 440.43 67.5997C440.99 66.7997 441.76 66.1897 442.34 65.4197C443.53 63.8197 444.26 62.0597 444.62 60.0897C445.11 57.4297 444.6 54.9597 443.48 52.5797C442.96 51.4697 442.24 50.4797 441.35 49.6097C439.27 47.5797 438.51 45.0297 438.87 42.2297C439.23 39.3397 440.71 37.0597 443.43 35.8197C445.73 34.7597 448.12 34.7097 450.5 35.6497C451.6 36.0797 452.52 36.7697 453.36 37.5997C455.21 39.4397 457.47 40.4797 460.01 40.8997C460.78 41.0297 461.58 41.0097 462.37 41.0597C462.4 41.2997 462.47 41.5397 462.45 41.7797C462.4 42.6997 462.43 43.6297 462.42 44.5497C462.42 45.1697 462.33 45.5197 461.75 45.7097C461.72 45.7097 461.69 45.7097 461.65 45.7097C461.42 45.6297 461.18 45.4597 461.02 45.8097V45.7997Z" fill="white" style="fill:white;fill-opacity:1;"/>
<path d="M484.61 39.0997C486.06 40.0597 487.67 40.6197 489.37 40.8997C491.55 41.2597 493.67 40.8797 495.72 40.0997C497.37 39.4697 498.77 38.4897 500.05 37.2697C501.57 35.8097 503.43 35.0297 505.56 35.0397C506.11 35.0397 506.68 34.8897 507.22 35.1397C506.93 35.4797 506.43 35.6997 506.55 36.2797C506.72 37.0697 506.58 37.8697 506.52 38.6497C506.37 40.4797 506.66 42.3097 506.51 44.1297C506.43 45.1797 506.53 46.2397 506.56 47.2897C506.6 48.4597 506.46 49.6297 506.53 50.7997C506.56 51.2997 506.59 51.8097 506.58 52.3097C506.57 53.4597 506.48 54.6097 506.49 55.7697C506.49 57.2897 506.61 58.7997 506.49 60.3197C506.46 60.6797 506.41 61.0297 506.44 61.4097C506.54 62.5197 506.59 63.6397 506.59 64.7497C506.59 65.2897 506.42 65.8397 506.5 66.3897C506.62 67.1997 506.64 68.0197 506.59 68.8197C506.5 70.1997 506.5 71.5797 506.48 72.9597C506.48 73.4697 506.66 73.9597 506.59 74.4797C506.43 75.6497 506.54 76.8197 506.56 77.9997C506.58 79.0197 506.68 80.0597 506.49 81.0797C504.47 81.2797 502.64 80.7397 500.98 79.6197C499.2 78.4197 498.24 76.6597 497.79 74.5997C497.34 72.5297 497.62 70.5497 498.55 68.6697C498.87 68.0297 499.26 67.4197 499.78 66.9097C501.78 64.9397 503.05 62.5997 503.43 59.8097C503.9 56.3197 503.07 53.1997 500.88 50.4197C499.32 48.4397 497.33 47.0697 494.94 46.3497C491.35 45.2697 487.91 45.6297 484.68 47.6297C484.65 47.6497 484.6 47.6397 484.56 47.6497C484.61 47.2097 485.19 47.0297 485.13 46.5397C484.95 45.0997 485.16 43.6597 485.04 42.2197C484.98 41.5297 485.14 40.8497 485.08 40.1597C485.04 39.6997 484.52 39.5397 484.61 39.0897V39.0997Z" fill="white" style="fill:white;fill-opacity:1;"/>
<path d="M484.61 39.1002C484.52 39.5502 485.04 39.7102 485.08 40.1702C485.14 40.8702 484.98 41.5502 485.04 42.2302C485.16 43.6702 484.94 45.1102 485.13 46.5502C485.19 47.0402 484.62 47.2202 484.56 47.6602C483.86 48.2602 483.09 48.7602 482.45 49.4402C480.62 51.3802 479.42 53.6202 479.03 56.2802C478.74 58.2602 478.92 60.1902 479.57 62.1002C480.17 63.8702 481.19 65.3402 482.44 66.6902C483.91 68.2802 484.77 70.1302 484.81 72.3602C484.84 73.8302 484.66 75.2502 484.04 76.5802C483.42 77.9102 482.49 79.0002 481.25 79.8102C479.43 81.0002 477.41 81.2502 475.3 81.0802C475.27 81.0802 475.25 81.0202 475.22 80.9902C475.14 80.0402 475 79.0902 475 78.1302C475 77.5102 475.19 76.8602 475.08 76.2402C474.82 74.7002 475.18 73.1702 475.03 71.6202C474.89 70.0802 475.07 68.5002 475.09 66.9402C475.1 65.9002 474.94 64.8602 475.01 63.8402C475.13 62.1102 475.09 60.3802 475.07 58.6502C475.04 56.6002 475.01 54.5402 475.07 52.4902C475.13 50.2502 474.85 48.0102 475.1 45.7802C475.2 44.8702 474.94 43.9702 475.04 43.0402C475.13 42.2702 475.16 41.4602 475.08 40.6702C475.01 39.9702 475.02 39.2602 475.01 38.5502C474.99 37.4202 475.26 36.2802 474.98 35.1502C475.85 34.8302 476.76 34.9502 477.62 35.0402C479.09 35.2002 480.48 35.7302 481.67 36.6402C482.42 37.2102 483.11 37.8702 483.8 38.5102C483.96 38.6602 484.22 38.6702 484.3 38.9202C484.34 39.0802 484.44 39.1302 484.59 39.0702L484.61 39.1002Z" fill="white" style="fill:white;fill-opacity:1;"/>
<path d="M506.49 81.0904C506.68 80.0704 506.57 79.0404 506.56 78.0104C506.54 76.8404 506.43 75.6604 506.59 74.4904C506.66 73.9704 506.48 73.4804 506.48 72.9704C506.5 71.5904 506.5 70.2104 506.59 68.8304C506.64 68.0304 506.62 67.2104 506.5 66.4004C506.42 65.8504 506.59 65.3004 506.59 64.7604C506.59 63.6504 506.54 62.5304 506.44 61.4204C506.41 61.0404 506.46 60.6904 506.49 60.3304C506.61 58.8104 506.49 57.3004 506.49 55.7804C506.49 54.6304 506.57 53.4804 506.58 52.3204C506.58 51.8204 506.56 51.3104 506.53 50.8104C506.47 49.6404 506.6 48.4704 506.56 47.3004C506.53 46.2504 506.42 45.2004 506.51 44.1404C506.66 42.3104 506.37 40.4904 506.52 38.6604C506.58 37.8804 506.72 37.0804 506.55 36.2904C506.42 35.7104 506.92 35.4804 507.22 35.1504C508.81 35.3404 510.22 35.9304 511.42 36.9804C512.79 38.1704 513.77 39.6104 514.13 41.4104C514.64 43.9904 514.28 46.4204 512.63 48.5604C511.82 49.6104 510.81 50.4804 510.12 51.6304C509.3 53.0004 508.73 54.4404 508.45 56.0004C507.76 59.7404 508.85 63.0304 511.14 65.9404C511.91 66.9104 512.83 67.7604 513.36 68.9104C514.72 71.8404 514.56 74.7304 512.94 77.4604C511.75 79.4504 509.86 80.5804 507.56 81.0004C507.2 81.0604 506.85 81.1404 506.49 81.0904Z" fill="white" style="fill:white;fill-opacity:1;"/>
<path d="M474.99 35.1797C475.27 36.3097 475.01 37.4497 475.02 38.5797C475.03 39.2897 475.02 39.9897 475.09 40.6997C475.17 41.4997 475.13 42.2997 475.05 43.0697C474.95 43.9997 475.21 44.8997 475.11 45.8097C474.86 48.0397 475.15 50.2797 475.08 52.5197C475.02 54.5597 475.05 56.6197 475.08 58.6797C475.11 60.4097 475.14 62.1397 475.02 63.8697C474.95 64.8897 475.11 65.9397 475.1 66.9697C475.08 68.5297 474.9 70.0997 475.04 71.6497C475.18 73.1997 474.83 74.7297 475.09 76.2697C475.19 76.8897 475.01 77.5297 475.01 78.1597C475.01 79.1097 475.15 80.0597 475.23 81.0197C475.03 81.0097 474.82 80.9997 474.62 80.9897C474.57 80.9597 474.53 80.9197 474.48 80.8897C474.4 80.8897 474.33 80.8697 474.25 80.8697C474.21 80.7297 474.14 80.6497 474 80.7797C473.8 80.7297 473.59 80.6797 473.39 80.6197C473.34 80.5897 473.3 80.5497 473.25 80.5197C470.53 79.4597 468.96 77.4097 468.38 74.6097C467.98 72.6797 468.18 70.7597 469 68.9597C469.36 68.1597 469.84 67.4097 470.5 66.7997C472.38 65.0697 473.5 62.8897 473.96 60.4297C474.64 56.7997 473.85 53.4497 471.52 50.5197C469.47 47.9397 466.82 46.4297 463.56 45.9197C462.95 45.8197 462.31 46.0097 461.73 45.7197C462.31 45.5297 462.39 45.1797 462.4 44.5597C462.41 43.6397 462.39 42.7097 462.43 41.7897C462.44 41.5497 462.38 41.3097 462.35 41.0697C463.03 40.8197 463.76 40.8697 464.46 40.6997C466.52 40.1797 468.42 39.3597 469.98 37.8897C471.29 36.6497 472.72 35.6397 474.51 35.2197C474.67 35.1797 474.83 35.1797 474.99 35.1997V35.1797Z" fill="white" style="fill:white;fill-opacity:1;"/>
<path d="M461.02 45.8002C461.18 45.4502 461.42 45.6202 461.65 45.7002C461.47 45.9202 461.23 45.7902 461.02 45.8002Z" fill="white" style="fill:white;fill-opacity:1;"/>
<path d="M484.61 39.1002C484.45 39.1602 484.36 39.1002 484.32 38.9502C484.44 38.9502 484.55 38.9802 484.61 39.1002Z" fill="white" style="fill:white;fill-opacity:1;"/>
<path d="M474.01 80.7499C474.15 80.6199 474.22 80.6899 474.26 80.8399C474.16 80.8599 474.06 80.8799 474.01 80.7499Z" fill="white" style="fill:white;fill-opacity:1;"/>
<path d="M473.26 80.5C473.26 80.5 473.35 80.57 473.4 80.6C473.32 80.62 473.29 80.57 473.26 80.5Z" fill="white" style="fill:white;fill-opacity:1;"/>
<path d="M474.49 80.8701C474.49 80.8701 474.58 80.9401 474.63 80.9701C474.55 80.9901 474.52 80.9401 474.49 80.8701Z" fill="white" style="fill:white;fill-opacity:1;"/>
</svg>
