<svg width="1140" height="118" viewBox="0 0 1140 118" fill="none" xmlns="http://www.w3.org/2000/svg">
<path d="M98.15 13.8096L137.08 117.44H119.17L110.29 93.1596H51.07L41.45 117.44H23.69L64.54 13.8096H81.42L55.96 78.9496H105.41L81.42 13.8096H98.15Z" fill="white" style="fill:white;fill-opacity:1;"/>
<path d="M276.24 13.8096V117.44H259.81V72.8796H189.64V117.44H173.21V13.8096H189.64V57.4796H259.81V13.8096H276.24Z" fill="white" style="fill:white;fill-opacity:1;"/>
<path d="M357.21 13.8096L396.14 117.44H378.23L369.35 93.1596H310.14L300.52 117.44H282.76L323.62 13.8096H340.5L315.04 78.9496H364.49L340.51 13.8096H357.24H357.21Z" fill="white" style="fill:white;fill-opacity:1;"/>
<path d="M444.26 117.44C435.87 117.44 428.37 116.28 421.76 113.96C415.15 111.64 409.55 108.26 404.96 103.82C400.37 99.3803 396.87 93.9503 394.45 87.5403C392.03 81.1203 390.82 73.8703 390.82 65.7803C390.82 57.6903 392.1 50.4303 394.67 44.0203C397.24 37.6003 400.89 32.1503 405.63 27.6603C410.37 23.1703 416.07 19.7403 422.73 17.3703C429.39 15.0003 436.87 13.8203 445.16 13.8203C451.38 13.8203 457.42 14.4903 463.29 15.8203C469.16 17.1503 474.47 19.3003 479.2 22.2603C483.94 25.2203 487.91 29.0503 491.12 33.7303C494.33 38.4203 496.38 44.0703 497.26 50.6803H480.53C479.84 47.5203 478.46 44.6403 476.39 42.0203C474.32 39.4103 471.73 37.1603 468.62 35.2803C465.51 33.4103 461.91 31.9503 457.81 30.9103C453.71 29.8703 449.35 29.3603 444.71 29.3603C438.1 29.3603 432.45 30.3203 427.76 32.2503C423.07 34.1703 419.22 36.7903 416.21 40.1003C413.2 43.4103 411 47.2603 409.62 51.6503C408.24 56.0403 407.55 60.7103 407.55 65.6403C407.55 70.5703 408.22 75.2403 409.55 79.6303C410.88 84.0203 413 87.8703 415.92 91.1803C418.83 94.4903 422.66 97.1003 427.39 99.0303C432.12 100.96 437.9 101.92 444.71 101.92C448.66 101.92 452.58 101.5 456.48 100.66C460.38 99.8203 463.98 98.5403 467.29 96.8103C470.6 95.0803 473.46 92.8603 475.88 90.1503C478.3 87.4403 479.95 84.1503 480.84 80.3103H497.42C496.33 86.9203 494.14 92.5703 490.83 97.2603C487.52 101.95 483.45 105.8 478.62 108.81C473.78 111.82 468.41 114.02 462.48 115.4C456.56 116.78 450.49 117.47 444.27 117.47L444.26 117.44Z" fill="white" style="fill:white;fill-opacity:1;"/>
<path d="M527.45 70.5096V117.44H511.02V13.8096H527.45V69.0296" fill="white" style="fill:white;fill-opacity:1;"/>
<path d="M684.52 13.8096L723.45 117.44H705.54L696.66 93.1596H637.45L627.83 117.44H610.07L650.93 13.8096H667.81L642.35 78.9496H691.8L667.82 13.8096H684.55H684.52Z" fill="white" style="fill:white;fill-opacity:1;"/>
<path d="M803.25 13.8096V29.2096H762.98V117.44H746.55V29.2096H706.28V13.8096H803.25Z" fill="white" style="fill:white;fill-opacity:1;"/>
<path d="M913.68 13.8096V117.44H897.25V72.8796H827.08V117.44H810.65V13.8096H827.08V57.4796H897.25V13.8096H913.68Z" fill="white" style="fill:white;fill-opacity:1;"/>
<path d="M1032.26 65.6303C1032.26 82.5103 1027.47 95.3603 1017.9 104.19C1008.33 113.02 994.56 117.44 976.6 117.44C958.64 117.44 944.65 113.02 935.22 104.19C925.79 95.3603 921.08 82.5003 921.08 65.6303C921.08 48.7603 925.91 35.6503 935.59 26.9203C945.26 18.1903 958.98 13.8203 976.74 13.8203C994.5 13.8203 1008.2 18.0903 1017.82 26.6303C1027.44 35.1703 1032.25 48.1703 1032.25 65.6403L1032.26 65.6303ZM1015.53 65.3303C1015.53 53.8803 1012.27 45.0303 1005.76 38.7603C999.25 32.4903 989.62 29.3603 976.89 29.3603C964.16 29.3603 954.34 32.5203 947.73 38.8303C941.12 45.1503 937.81 54.0803 937.81 65.6203C937.81 77.1603 941.14 86.4703 947.8 92.6403C954.46 98.8103 964.16 101.89 976.89 101.89C989.62 101.89 999.86 98.6303 1006.13 92.1203C1012.4 85.6103 1015.53 76.6803 1015.53 65.3303Z" fill="white" style="fill:white;fill-opacity:1;"/>
<path d="M1039.66 117.44V13.8096H1055.94V117.44H1039.66ZM1139.44 13.8096V117.44H1106.28L1055.95 13.8096H1072.53L1123.16 117.44V13.8096H1139.44Z" fill="white" style="fill:white;fill-opacity:1;"/>
<path d="M527.45 69.0296L580.75 13.8096H603.25L558.39 59.6996L603.55 117.44H583.41L546.55 70.5096H527.45" fill="#FFDA35" style="fill:#FFDA35;fill:color(display-p3 1.0000 0.8549 0.2078);fill-opacity:1;"/>
<path d="M16.43 26.2803H0V117.44H16.43V26.2803Z" fill="white" style="fill:white;fill-opacity:1;"/>
<path d="M34.21 0H17.77V16.34H34.21V0Z" fill="#FFDA35" style="fill:#FFDA35;fill:color(display-p3 1.0000 0.8549 0.2078);fill-opacity:1;"/>
</svg>
