<svg width="3926" height="1571" viewBox="0 0 3926 1571" fill="none" xmlns="http://www.w3.org/2000/svg">
<rect x="216" y="439" width="728" height="728" rx="170.625" fill="#0C0E19" style="fill:#0C0E19;fill:color(display-p3 0.0471 0.0549 0.0980);fill-opacity:1;"/>
<path d="M644.282 680.458C619.472 687.676 597.48 701.209 580 719.253C553.498 691.736 516.394 674.594 475.231 674.594C398.543 674.594 335.84 733.914 330.201 809.136V811.391C329.976 814.323 329.75 817.255 329.75 820.188C329.75 823.12 329.976 826.052 330.201 828.984V1003.11H420.873V809.699C420.873 809.474 420.873 809.248 420.873 809.023C421.211 778.009 446.36 753.086 477.374 753.086C508.387 753.086 533.536 778.122 533.875 809.023C533.875 809.248 533.875 809.474 533.875 809.699V1003.11H623.644V809.474C623.644 809.361 623.644 809.248 623.644 809.023C623.87 777.897 649.132 752.86 680.258 752.86C711.384 752.86 736.646 778.009 736.871 809.023C736.871 809.136 736.871 809.248 736.871 809.474V1003.11H830.25V821.09L644.17 680.458H644.282Z" fill="url(#paint0_linear_2035_36)" style=""/>
<path d="M777.019 598.243C768.335 598.243 760.441 600.95 753.787 605.461L644.168 680.457H736.081V749.927H830.249V598.243H777.019Z" fill="url(#paint1_linear_2035_36)" style=""/>
<path d="M1203.11 965.804V637.941H1298.19L1369.85 932.081H1377.35L1449.01 637.941H1544.09V965.804H1494.91V673.537H1487.42L1416.22 965.804H1330.98L1259.78 673.537H1252.29V965.804H1203.11ZM1678.99 970.019C1661.51 970.019 1645.89 966.116 1632.15 958.31C1618.42 950.503 1607.64 939.419 1599.84 925.055C1592.03 910.691 1588.13 893.518 1588.13 873.534V734.894H1636.37V870.255C1636.37 890.239 1641.37 905.071 1651.36 914.751C1661.35 924.118 1675.25 928.802 1693.04 928.802C1712.72 928.802 1728.48 922.245 1740.35 909.13C1752.53 895.703 1758.62 876.5 1758.62 851.52V734.894H1806.86V965.804H1759.55V931.144H1752.06C1747.69 940.511 1739.88 949.411 1728.64 957.841C1717.4 965.96 1700.85 970.019 1678.99 970.019ZM1854.75 965.804V734.894H1902.06V769.554H1909.55C1913.93 760.187 1921.73 751.444 1932.97 743.325C1944.21 735.207 1960.92 731.147 1983.09 731.147C2000.57 731.147 2016.03 735.051 2029.46 742.857C2043.2 750.663 2053.97 761.748 2061.78 776.111C2069.58 790.163 2073.49 807.18 2073.49 827.164V965.804H2025.24V830.911C2025.24 810.927 2020.25 796.252 2010.25 786.884C2000.26 777.204 1986.52 772.364 1969.04 772.364C1949.05 772.364 1932.97 778.922 1920.79 792.036C1908.93 805.151 1903 824.198 1903 849.178V965.804H1854.75ZM2227.69 972.361C2204.58 972.361 2183.98 967.677 2165.87 958.31C2148.07 948.63 2134.02 934.891 2123.71 917.093C2113.41 899.294 2108.26 878.217 2108.26 853.862V846.836C2108.26 822.481 2113.41 801.56 2123.71 784.074C2134.02 766.276 2148.07 752.537 2165.87 742.857C2183.98 733.177 2204.58 728.337 2227.69 728.337C2250.8 728.337 2271.41 733.177 2289.52 742.857C2307.63 752.537 2321.83 766.276 2332.14 784.074C2342.44 801.56 2347.6 822.481 2347.6 846.836V853.862C2347.6 878.217 2342.44 899.294 2332.14 917.093C2321.83 934.891 2307.63 948.63 2289.52 958.31C2271.41 967.677 2250.8 972.361 2227.69 972.361ZM2227.69 929.27C2248.92 929.27 2266.1 922.557 2279.21 909.13C2292.64 895.391 2299.35 876.5 2299.35 852.457V848.241C2299.35 824.198 2292.8 805.463 2279.68 792.036C2266.57 778.297 2249.24 771.428 2227.69 771.428C2206.77 771.428 2189.6 778.297 2176.17 792.036C2163.05 805.463 2156.5 824.198 2156.5 848.241V852.457C2156.5 876.5 2163.05 895.391 2176.17 909.13C2189.6 922.557 2206.77 929.27 2227.69 929.27ZM2478.8 965.804V637.941H2529.38V919.903H2687.22V965.804H2478.8ZM2783.21 972.361C2766.66 972.361 2751.83 969.551 2738.72 963.93C2725.92 958.31 2715.61 950.035 2707.81 939.106C2700.31 928.178 2696.56 914.907 2696.56 899.294C2696.56 883.37 2700.31 870.255 2707.81 859.951C2715.61 849.334 2726.07 841.372 2739.19 836.064C2752.61 830.755 2767.76 828.101 2784.62 828.101H2854.88V813.113C2854.88 799.686 2850.82 788.914 2842.7 780.795C2834.58 772.677 2822.09 768.617 2805.23 768.617C2788.68 768.617 2776.03 772.521 2767.29 780.327C2758.55 788.133 2752.77 798.281 2749.96 810.771L2705 796.252C2708.74 783.762 2714.67 772.521 2722.79 762.529C2731.22 752.224 2742.31 743.95 2756.05 737.705C2769.79 731.46 2786.34 728.337 2805.7 728.337C2835.67 728.337 2859.25 735.987 2876.42 751.288C2893.59 766.588 2902.18 788.289 2902.18 816.392V911.472C2902.18 920.84 2906.55 925.523 2915.3 925.523H2934.97V965.804H2898.9C2887.97 965.804 2879.07 962.993 2872.21 957.373C2865.34 951.752 2861.9 944.102 2861.9 934.423V933.017H2854.88C2852.38 937.701 2848.63 943.166 2843.63 949.411C2838.64 955.656 2831.3 961.12 2821.62 965.804C2811.94 970.175 2799.14 972.361 2783.21 972.361ZM2790.24 932.549C2809.6 932.549 2825.21 927.085 2837.08 916.156C2848.94 904.915 2854.88 889.615 2854.88 870.255V865.571H2787.43C2774.63 865.571 2764.32 868.382 2756.52 874.002C2748.71 879.31 2744.81 887.273 2744.81 897.889C2744.81 908.506 2748.87 916.936 2756.98 923.182C2765.1 929.427 2776.19 932.549 2790.24 932.549ZM3091.94 972.361C3069.46 972.361 3052.13 968.302 3039.95 960.183C3028.09 952.065 3019.19 943.009 3013.26 933.017H3005.76V965.804H2958.46V637.941H3006.7V766.276H3014.19C3017.94 760.031 3022.94 754.098 3029.18 748.477C3035.43 742.545 3043.7 737.705 3054 733.958C3064.31 730.211 3076.96 728.337 3091.94 728.337C3111.3 728.337 3129.1 733.021 3145.34 742.388C3161.57 751.756 3174.53 765.339 3184.21 783.137C3193.89 800.935 3198.73 822.168 3198.73 846.836V853.862C3198.73 878.842 3193.74 900.231 3183.74 918.029C3174.06 935.515 3161.11 948.942 3144.87 958.31C3128.94 967.677 3111.3 972.361 3091.94 972.361ZM3077.89 930.207C3098.81 930.207 3115.99 923.494 3129.41 910.067C3143.15 896.64 3150.02 877.437 3150.02 852.457V848.241C3150.02 823.574 3143.31 804.526 3129.88 791.1C3116.45 777.673 3099.12 770.959 3077.89 770.959C3057.28 770.959 3040.11 777.673 3026.37 791.1C3012.94 804.526 3006.23 823.574 3006.23 848.241V852.457C3006.23 877.437 3012.94 896.64 3026.37 910.067C3040.11 923.494 3057.28 930.207 3077.89 930.207ZM3329.7 972.361C3300.35 972.361 3276 965.804 3256.64 952.689C3237.28 939.575 3225.41 919.747 3221.04 893.205L3266 882.433C3268.5 895.235 3272.72 905.383 3278.65 912.877C3284.58 920.371 3291.92 925.68 3300.66 928.802C3309.72 931.925 3319.4 933.486 3329.7 933.486C3345 933.486 3356.71 930.519 3364.83 924.587C3373.26 918.654 3377.48 911.004 3377.48 901.636C3377.48 892.269 3373.57 885.399 3365.77 881.028C3357.96 876.656 3346.41 873.065 3331.11 870.255L3315.18 867.445C3299.57 864.635 3285.36 860.575 3272.56 855.267C3259.76 849.959 3249.61 842.621 3242.12 833.253C3234.62 823.886 3230.88 811.864 3230.88 797.188C3230.88 775.331 3238.99 758.469 3255.23 746.604C3271.47 734.426 3293.01 728.337 3319.87 728.337C3345.78 728.337 3367.02 734.27 3383.57 746.135C3400.43 757.689 3411.36 773.457 3416.35 793.441L3371.39 806.088C3368.58 792.036 3362.64 782.2 3353.59 776.58C3344.53 770.647 3333.29 767.681 3319.87 767.681C3306.75 767.681 3296.45 770.179 3288.95 775.175C3281.46 779.859 3277.71 786.572 3277.71 795.315C3277.71 804.682 3281.3 811.552 3288.49 815.923C3295.98 820.295 3305.97 823.574 3318.46 825.759L3334.85 828.57C3351.4 831.38 3366.55 835.283 3380.29 840.279C3394.03 845.275 3404.8 852.457 3412.6 861.824C3420.72 871.192 3424.78 883.682 3424.78 899.294C3424.78 922.401 3416.2 940.355 3399.02 953.158C3381.85 965.96 3358.74 972.361 3329.7 972.361Z" fill="white" style="fill:white;fill-opacity:1;"/>
<defs>
<linearGradient id="paint0_linear_2035_36" x1="580" y1="674.594" x2="580" y2="1003.11" gradientUnits="userSpaceOnUse">
<stop stop-color="#EFF6FF" style="stop-color:#EFF6FF;stop-color:color(display-p3 0.9386 0.9659 1.0000);stop-opacity:1;"/>
<stop offset="1" stop-color="#B3CFEF" style="stop-color:#B3CFEF;stop-color:color(display-p3 0.7020 0.8106 0.9373);stop-opacity:1;"/>
</linearGradient>
<linearGradient id="paint1_linear_2035_36" x1="737.209" y1="598.243" x2="737.209" y2="749.927" gradientUnits="userSpaceOnUse">
<stop stop-color="#EDF5FE" style="stop-color:#EDF5FE;stop-color:color(display-p3 0.9294 0.9608 0.9961);stop-opacity:1;"/>
<stop offset="1" stop-color="#B3CFEF" style="stop-color:#B3CFEF;stop-color:color(display-p3 0.7020 0.8106 0.9373);stop-opacity:1;"/>
</linearGradient>
</defs>
</svg>
