<?xml version="1.0" encoding="utf-8"?>
<!-- Generator: Adobe Illustrator 27.2.0, SVG Export Plug-In . SVG Version: 6.00 Build 0)  -->
<svg version="1.1" id="Capa_1" xmlns="http://www.w3.org/2000/svg" xmlns:xlink="http://www.w3.org/1999/xlink" x="0px" y="0px"
	 viewBox="0 0 500 500" style="enable-background:new 0 0 500 500;" xml:space="preserve">
<style type="text/css">
	.st0{fill-rule:evenodd;clip-rule:evenodd;fill:#FFFFFF;}
	.st1{fill:#FFFFFF;}
</style>
<g>
	<g>
		<path class="st0" d="M314.2,221.6v-89.5H185.8v89.5c0,0-1.1,13.2,7.5,19c9.2,5.8,23.7,14.3,33.7,19.5c4.7,2.2,8.6,3.9,12,6.1
			c7,4.7,10.9,9.1,11.1,9.1c0,0,3.9-4.4,10.6-9.1c3.3-2.2,7.5-3.9,12.2-6.1c10-5.2,24.5-13.8,33.4-19.5
			C315.3,234.8,314.2,221.6,314.2,221.6z M230.9,138.8v26.4l-0.6-0.3l-6.1-26.1H230.9z M219.8,138.8l6.7,29.2l4.2,2.5v24.8
			l-11.4-4.1l-7-52.3H219.8z M208.4,138.8l4.5,50.1l-4.7-1.7l-1.9-48.4H208.4z M193.3,138.8h8.6l0.8,50.9l11.1,6.1l0.8,12.7
			c0,0-8.4-4.1-10.3-7.2c-1.4-1.4-8.6-10.5-11.1-13.5V138.8z M244,261c-4.2-2.8-8.6-5.2-13.4-7.2c-9.7-5.2-23.9-13.5-32.9-19.3
			c-1.9-1.4-3.3-3.9-3.9-7.1c-0.8-3-0.6-5.8-0.6-5.8v-25.9c1.7,3.6,5.6,11,10,13.8c9.2,5.5,33.7,9.4,40.6,10.7V261z M244,213.3
			l-21.7-3.6l-1.7-12.7l23.4,8.8V213.3z M244,200.1l-8.9-2.8v-25l8.9,3.9V200.1z M244,170.1l-8.1-2.2v-29.2h8.1V170.1z M295.2,138.8
			h11.1v38l-10,20.4c0,0-0.6,0.8-1.1,1.1c-0.6,0.5-1.7,0.5-1.7,0.5l-8.9,1.9l0.3-12.1l10-5.5L295.2,138.8z M291.3,138.8v40.7
			l-6.4,3.3l-0.6-44H291.3z M274.4,138.8h4.7l-0.6,46.5l-11.4,3.9l-1.1-24.8l5.8-2.5L274.4,138.8z M270.2,138.8l-2.2,20.6l-2.5,0.3
			l-2.8-20.9H270.2z M255.7,138.8h1.4l3.3,20.1l-4.7,0.6V138.8z M255.7,164.9l4.7,0.3l0.8,26.4l-5.6,1.4V164.9z M255.7,197.9
			l23.7-7.2l-0.3,11l-23.4,4.1V197.9z M301.9,234.5c-8.6,5.8-22.8,14-32.6,19.3c-4.7,1.9-9.5,4.4-13.6,7.2v-49.8l22-3.9l14.8-3
			c0,0,6.1-0.8,8.6-3.9c0.8-1.1,2.2-3.8,2.2-3.8l3.1-9.9v35C306.7,225.7,305.8,232.1,301.9,234.5z"/>
		<g>
			<path class="st1" d="M103.5,291.3v-1.8h9.5v1.8c-1,0.4-1.9,1.1-2.6,1.9c-0.7,0.8-1.5,2.1-2.3,3.7c-0.8,1.7-1.4,3.3-1.7,4.9
				c-0.4,1.6-0.6,3.2-0.6,4.8c0,2,0.3,3.7,1,5.2c0.6,1.5,1.6,2.7,2.8,3.7c0.8,0.6,1.7,1,2.8,1.3c1.1,0.2,3,0.4,5.6,0.4h3.2v-23.4
				c0-0.8-0.1-1.4-0.4-1.7c-0.3-0.3-0.7-0.5-1.5-0.5v-2h9.9v2c-0.6,0.1-1.1,0.3-1.4,0.6c-0.3,0.4-0.5,0.9-0.5,1.6V316
				c0,1.4,0.1,2.4,0.4,2.8c0.3,0.4,0.8,0.7,1.5,0.7l0,2h-12.7c-3.3,0-5.6-0.1-7-0.4c-1.4-0.3-2.7-0.8-3.8-1.4
				c-2.1-1.2-3.6-2.8-4.6-4.8c-1-2-1.5-4.4-1.5-7.1c0-1.6,0.2-3.2,0.7-4.9c0.4-1.6,1.2-3.6,2.4-5.9c0.3-0.7,0.8-1.5,1.4-2.5
				c0.7-1.3,1.1-2.1,1.1-2.5c0-0.2-0.1-0.4-0.3-0.5C104.6,291.4,104.2,291.3,103.5,291.3z"/>
			<path class="st1" d="M132,321.5v-2h0.1c0.7,0,1.2-0.2,1.5-0.5c0.3-0.3,0.4-1,0.4-1.9v-24.4c0-0.3-0.2-0.6-0.5-0.8
				c-0.3-0.2-0.8-0.4-1.3-0.5v-1.9h9l13.8,13.9v-10c0-0.7-0.1-1.2-0.4-1.5c-0.3-0.3-0.7-0.4-1.5-0.5v-1.9h8v1.9
				c-0.6,0-1.1,0.2-1.3,0.6c-0.3,0.3-0.4,0.9-0.4,1.7v23.4c0,1,0.1,1.7,0.4,2c0.2,0.3,0.7,0.4,1.4,0.5v2h-8.1v-2
				c0.7,0,1.2-0.2,1.5-0.5c0.3-0.3,0.4-0.9,0.4-1.7v-5.5l-16.2-16.2v21.3c0,1,0.1,1.7,0.4,2c0.3,0.4,0.7,0.6,1.4,0.6v2H132z"/>
			<path class="st1" d="M164.6,321.5v-2c0.7-0.1,1.2-0.2,1.5-0.5c0.3-0.3,0.4-0.9,0.4-1.7v-23.6c0-0.8-0.1-1.4-0.4-1.7
				c-0.3-0.3-0.8-0.5-1.5-0.5v-2h10v2c-0.7,0.1-1.1,0.3-1.4,0.6c-0.3,0.3-0.4,0.8-0.4,1.6v23.8c0,0.7,0.1,1.2,0.4,1.6
				c0.3,0.3,0.8,0.5,1.4,0.6v2H164.6z"/>
			<path class="st1" d="M193,321.5h-6.3l-9.3-27.8c-0.2-0.7-0.5-1.2-0.9-1.6c-0.4-0.4-0.8-0.6-1.4-0.7v-1.9h10.1v1.9
				c-0.5,0-0.9,0.1-1.2,0.2c-0.3,0.2-0.4,0.4-0.4,0.6c0,0.2,0,0.4,0.1,0.7c0.1,0.3,0.1,0.6,0.2,0.9l6.8,20.5l6.9-20.2
				c0.1-0.4,0.2-0.7,0.3-1c0.1-0.3,0.1-0.5,0.1-0.7c0-0.3-0.1-0.6-0.4-0.8c-0.2-0.2-0.6-0.3-1-0.3h-0.1v-1.9h8.2v1.9
				c-0.6,0.1-1,0.3-1.4,0.6c-0.3,0.3-0.6,0.9-1,1.9L193,321.5z"/>
			<path class="st1" d="M225,317.6c1.8,0,3-0.2,3.6-0.6c0.6-0.4,1.1-1.1,1.3-2.2h2.2v6.7h-26.8v-2c0.7-0.1,1.2-0.2,1.5-0.5
				c0.3-0.3,0.4-0.9,0.4-1.7v-23.6c0-0.8-0.1-1.4-0.4-1.7c-0.3-0.3-0.8-0.5-1.5-0.5v-2h25.6v6.3h-2c-0.3-0.9-0.6-1.5-1.1-1.9
				c-0.5-0.3-1.5-0.5-3.1-0.5h-11.4v8.1h8.3c1.6,0,2.7-0.1,3.2-0.4c0.5-0.3,0.8-0.8,1-1.7h1.8v7.9h-1.8c-0.1-0.8-0.4-1.4-0.8-1.7
				c-0.4-0.3-1.1-0.4-2.2-0.4h-9.5v12.4H225z"/>
			<path class="st1" d="M234.4,321.5v-2c0.7-0.1,1.2-0.2,1.5-0.5c0.3-0.3,0.4-0.9,0.4-1.7v-23.6c0-0.8-0.1-1.4-0.4-1.7
				c-0.3-0.3-0.8-0.5-1.5-0.5v-2h15c3.5,0,6.2,0.8,8.1,2.3c2,1.6,2.9,3.7,2.9,6.3c0,2.2-0.6,4-1.9,5.6c-1.3,1.5-3,2.5-5.1,2.9
				l6.4,10.8c0.5,0.7,0.9,1.3,1.3,1.6c0.4,0.3,0.9,0.6,1.5,0.6v1.8h-7.6l-8-14h-4.6v8.7c0,1.4,0.1,2.3,0.4,2.6
				c0.3,0.4,0.7,0.6,1.4,0.7v2H234.4z M242.5,303.7h3.4c3.5,0,5.8-0.4,6.9-1.2c1.1-0.8,1.7-2.1,1.7-4.1c0-1.6-0.6-2.9-1.7-3.8
				c-1.2-0.9-2.8-1.4-4.8-1.4h-5.4V303.7z"/>
			<path class="st1" d="M263.6,313.9l6.6-4.5l1.3,1.5c-0.4,0.4-0.6,0.8-0.8,1.2c-0.2,0.4-0.2,0.7-0.2,1.1c0,1.4,0.7,2.5,2,3.4
				c1.3,0.9,3,1.4,5.1,1.4c2.3,0,4.1-0.5,5.5-1.4c1.4-1,2-2.2,2-3.8c0-0.8-0.2-1.6-0.7-2.3c-0.4-0.7-1.1-1.2-2-1.7
				c-0.6-0.3-1.9-0.7-4-1.2c-1.5-0.3-2.7-0.6-3.6-0.9c-3.4-0.9-5.9-2.1-7.3-3.5c-1.4-1.4-2.1-3.2-2.1-5.5c0-2.6,1.1-4.7,3.4-6.4
				c2.2-1.7,5.1-2.6,8.6-2.6c3,0,5.5,0.5,7.7,1.5c2.2,1,4.1,2.6,5.7,4.7l-5.1,4.8l-1.4-1.2c0.1-0.3,0.2-0.6,0.3-0.8
				c0.1-0.2,0.1-0.4,0.1-0.6c0-1.1-0.7-2.1-2-2.9c-1.4-0.8-3-1.2-5.1-1.2c-1.9,0-3.3,0.4-4.4,1.1c-1.1,0.7-1.6,1.7-1.6,2.9
				c0,1.8,2.2,3.3,6.6,4.3c1.1,0.3,2,0.5,2.7,0.6c3.7,1,6.4,2.2,8.1,3.8c1.7,1.6,2.5,3.6,2.5,6.2c0,3.2-1.2,5.8-3.7,7.7
				c-2.5,2-5.8,2.9-9.9,2.9c-3.3,0-6.1-0.7-8.3-2C267.2,319,265.2,316.9,263.6,313.9z"/>
			<path class="st1" d="M294.9,321.5v-2c0.7-0.1,1.2-0.2,1.5-0.5c0.3-0.3,0.4-0.9,0.4-1.7v-23.6c0-0.8-0.1-1.4-0.4-1.7
				c-0.3-0.3-0.8-0.5-1.5-0.5v-2h10v2c-0.7,0.1-1.1,0.3-1.4,0.6c-0.3,0.3-0.4,0.8-0.4,1.6v23.8c0,0.7,0.1,1.2,0.4,1.6
				c0.3,0.3,0.7,0.5,1.4,0.6v2H294.9z"/>
			<path class="st1" d="M307.9,321.5v-2c0.7-0.1,1.2-0.3,1.5-0.5c0.3-0.3,0.4-0.8,0.4-1.7v-23.6c0-0.9-0.1-1.5-0.4-1.7
				c-0.3-0.3-0.7-0.4-1.4-0.5v-2H318c3.4,0,6.1,0.2,8,0.7c1.9,0.5,3.7,1.2,5.3,2.3c2.4,1.5,4.2,3.5,5.5,6.1c1.3,2.5,2,5.3,2,8.2
				c0,2.6-0.5,5-1.6,7.1c-1.1,2.1-2.5,3.8-4.4,5.1c-1.4,0.9-3,1.6-4.8,2c-1.8,0.4-4.2,0.6-7.4,0.6H307.9z M316.1,317.4h4.6
				c3.8,0,6.7-0.9,8.7-2.8c2-1.9,3.1-4.6,3.1-8c0-4-1.3-7.2-3.9-9.5c-2.6-2.3-6.2-3.5-10.7-3.5h-1.2h-0.6V317.4z"/>
			<path class="st1" d="M348.2,309.8l-2.5,6.5c-0.1,0.3-0.2,0.6-0.3,0.9c-0.1,0.3-0.1,0.5-0.1,0.7c0,0.4,0.1,0.8,0.4,1
				c0.3,0.2,0.7,0.4,1.2,0.4v2h-8.4v-2c0.5-0.1,0.9-0.3,1.2-0.6c0.3-0.4,0.6-0.9,0.9-1.7l10.7-27.7h6.4l10.5,27.6
				c0,0.1,0.1,0.2,0.1,0.3c0.4,1.1,1,1.8,1.8,2.1v2h-9.8v-2c0.5,0,0.9-0.1,1.2-0.3c0.3-0.2,0.4-0.5,0.4-0.8c0-0.1,0-0.2-0.1-0.4
				c0-0.1-0.1-0.3-0.1-0.4l-2.8-7.7H348.2z M357.4,305.6l-3.9-10.5l-3.9,10.5H357.4z"/>
			<path class="st1" d="M371.3,321.5v-2c0.7-0.1,1.2-0.3,1.5-0.5c0.3-0.3,0.4-0.8,0.4-1.7v-23.6c0-0.9-0.1-1.5-0.4-1.7
				s-0.7-0.4-1.4-0.5v-2h10.1c3.4,0,6.1,0.2,8,0.7c1.9,0.5,3.7,1.2,5.3,2.3c2.4,1.5,4.2,3.5,5.5,6.1c1.3,2.5,2,5.3,2,8.2
				c0,2.6-0.5,5-1.6,7.1c-1.1,2.1-2.5,3.8-4.4,5.1c-1.4,0.9-3,1.6-4.8,2c-1.8,0.4-4.2,0.6-7.4,0.6H371.3z M379.4,317.4h4.6
				c3.8,0,6.7-0.9,8.7-2.8c2-1.9,3.1-4.6,3.1-8c0-4-1.3-7.2-3.9-9.5c-2.6-2.3-6.2-3.5-10.7-3.5H380h-0.6V317.4z"/>
		</g>
		<g>
			<path class="st1" d="M34.9,359.5l6.6-4.5l1.3,1.5c-0.4,0.4-0.6,0.8-0.8,1.2c-0.2,0.4-0.2,0.7-0.2,1.1c0,1.4,0.6,2.5,1.9,3.4
				c1.3,0.9,3,1.3,5,1.3c2.3,0,4.1-0.5,5.4-1.4c1.4-0.9,2-2.2,2-3.7c0-0.8-0.2-1.6-0.7-2.2c-0.4-0.6-1.1-1.2-2-1.7
				c-0.6-0.3-1.9-0.7-4-1.2c-1.5-0.3-2.7-0.6-3.5-0.9c-3.4-0.9-5.8-2.1-7.2-3.4c-1.4-1.4-2.1-3.2-2.1-5.5c0-2.6,1.1-4.7,3.3-6.4
				c2.2-1.7,5.1-2.5,8.5-2.5c2.9,0,5.5,0.5,7.7,1.5c2.2,1,4,2.5,5.6,4.6l-5.1,4.7l-1.4-1.2c0.1-0.3,0.2-0.6,0.3-0.8
				c0.1-0.2,0.1-0.4,0.1-0.6c0-1.1-0.7-2.1-2-2.9c-1.3-0.8-3-1.2-5-1.2c-1.8,0-3.3,0.4-4.4,1.1c-1.1,0.7-1.6,1.7-1.6,2.9
				c0,1.8,2.2,3.2,6.6,4.2c1.1,0.3,2,0.5,2.6,0.6c3.7,0.9,6.4,2.2,8.1,3.8c1.7,1.6,2.5,3.6,2.5,6.1c0,3.2-1.2,5.7-3.7,7.7
				c-2.4,1.9-5.7,2.9-9.8,2.9c-3.3,0-6-0.7-8.2-2C38.5,364.6,36.5,362.4,34.9,359.5z"/>
			<path class="st1" d="M85.4,363.1c1.7,0,2.9-0.2,3.6-0.6c0.6-0.4,1.1-1.1,1.3-2.2h2.1v6.6H65.9V365c0.7-0.1,1.2-0.2,1.5-0.5
				c0.3-0.3,0.4-0.9,0.4-1.7v-23.4c0-0.8-0.1-1.4-0.4-1.7c-0.3-0.3-0.8-0.5-1.5-0.5v-2h25.4v6.3h-2c-0.3-0.9-0.6-1.5-1.1-1.9
				c-0.5-0.3-1.5-0.5-3-0.5H73.9v8h8.3c1.6,0,2.7-0.1,3.2-0.4c0.5-0.3,0.8-0.8,1-1.6h1.8v7.8h-1.8c-0.1-0.8-0.4-1.4-0.8-1.7
				c-0.4-0.3-1.1-0.4-2.2-0.4h-9.4v12.3H85.4z"/>
			<path class="st1" d="M94.9,367V365c0.7-0.1,1.2-0.2,1.5-0.5c0.3-0.3,0.4-0.9,0.4-1.7v-23.4c0-0.8-0.1-1.4-0.4-1.7
				c-0.3-0.3-0.8-0.5-1.5-0.5v-2h14.8c3.4,0,6.1,0.8,8.1,2.3c1.9,1.5,2.9,3.6,2.9,6.3c0,2.2-0.6,4-1.9,5.5c-1.3,1.5-2.9,2.5-5.1,2.9
				l6.4,10.7c0.5,0.7,0.9,1.3,1.3,1.6c0.4,0.3,0.9,0.6,1.5,0.6v1.8h-7.6l-7.9-13.8h-4.5v8.6c0,1.4,0.1,2.3,0.4,2.6
				c0.3,0.4,0.7,0.6,1.4,0.7v1.9H94.9z M102.9,349.4h3.3c3.5,0,5.7-0.4,6.8-1.2c1.1-0.8,1.6-2.1,1.6-4c0-1.6-0.6-2.9-1.7-3.8
				c-1.1-0.9-2.7-1.4-4.8-1.4h-5.3V349.4z"/>
			<path class="st1" d="M155.7,367c-2.9,0.3-5.2,0.5-6.8,0.6c-1.6,0.1-2.9,0.2-3.8,0.2c-3.2,0-5.9-0.3-8.1-0.9
				c-2.2-0.6-4.1-1.5-5.8-2.8c-2.1-1.6-3.7-3.5-4.8-5.9c-1.1-2.4-1.7-5-1.7-7.8c0-4.7,1.5-8.5,4.4-11.4c3-2.9,6.8-4.4,11.5-4.4
				c2.9,0,5.4,0.4,7.6,1.2c2.2,0.8,4.3,2,6.3,3.7l-5.9,5.9L147,344c0.2-0.4,0.3-0.8,0.4-1c0.1-0.3,0.1-0.5,0.1-0.7
				c0-1-0.6-1.8-1.8-2.5c-1.2-0.7-2.8-1-4.6-1c-3,0-5.4,1-7.2,3c-1.8,2-2.7,4.7-2.7,8.2c0,4.2,1.3,7.5,3.9,9.9
				c2.6,2.5,6,3.7,10.3,3.7c0.5,0,1.4,0,2.5-0.1c0.2,0,0.3,0,0.4,0v-10.1c0-0.8-0.1-1.4-0.4-1.7c-0.3-0.3-0.8-0.5-1.5-0.6v-1.9h9.4
				v1.9c-0.7,0.1-1.1,0.3-1.3,0.6c-0.2,0.3-0.3,0.8-0.3,1.6v9.6c0,1,0.1,1.6,0.3,1.8c0.2,0.2,0.7,0.4,1.4,0.5V367z"/>
			<path class="st1" d="M158.9,367V365c0.7-0.1,1.2-0.2,1.5-0.5c0.3-0.3,0.4-0.9,0.4-1.7v-23.4c0-0.8-0.1-1.4-0.4-1.7
				c-0.3-0.3-0.8-0.5-1.5-0.5v-2h9.9v2c-0.7,0.1-1.1,0.3-1.4,0.6c-0.3,0.3-0.4,0.8-0.4,1.6v23.6c0,0.7,0.1,1.2,0.4,1.5
				c0.3,0.3,0.7,0.5,1.4,0.6v1.9H158.9z"/>
			<path class="st1" d="M171.9,351.3c0-4.8,1.6-8.8,4.8-12c3.2-3.2,7.3-4.7,12.3-4.7c4.9,0,8.9,1.6,12,4.7c3.1,3.1,4.7,7,4.7,11.8
				c0,5-1.6,9-4.7,12.1c-3.1,3.1-7.2,4.7-12.3,4.7c-5,0-9.1-1.5-12.2-4.6C173.4,360.1,171.9,356.1,171.9,351.3z M188.9,338.6
				c-3.1,0-5.6,1.2-7.6,3.5c-1.9,2.3-2.9,5.4-2.9,9.1c0,3.7,1,6.6,2.9,9c2,2.3,4.4,3.5,7.4,3.5c3.2,0,5.7-1.1,7.6-3.4
				c1.9-2.3,2.8-5.3,2.8-9.1c0-3.9-0.9-7-2.7-9.2C194.6,339.7,192.1,338.6,188.9,338.6z"/>
			<path class="st1" d="M226.2,355.4l-2.4,6.5c-0.1,0.3-0.2,0.6-0.3,0.9c-0.1,0.3-0.1,0.5-0.1,0.7c0,0.4,0.1,0.8,0.4,1
				c0.3,0.2,0.7,0.4,1.2,0.4v2h-8.4v-2c0.5-0.1,0.9-0.3,1.2-0.6c0.3-0.3,0.6-0.9,0.9-1.7l10.6-27.5h6.4l10.4,27.3
				c0,0.1,0.1,0.2,0.1,0.3c0.4,1.1,1,1.8,1.8,2.1v2h-9.8v-2c0.5,0,0.9-0.1,1.2-0.3c0.3-0.2,0.4-0.5,0.4-0.8c0-0.1,0-0.2-0.1-0.4
				c0-0.1-0.1-0.3-0.1-0.4l-2.8-7.6H226.2z M235.4,351.2l-3.9-10.4l-3.9,10.4H235.4z"/>
			<path class="st1" d="M249.1,367V365c0.7-0.1,1.2-0.2,1.5-0.5c0.3-0.3,0.4-0.9,0.4-1.7v-23.4c0-0.8-0.1-1.4-0.4-1.7
				c-0.3-0.3-0.8-0.5-1.5-0.5v-2h14.8c3.4,0,6.1,0.8,8.1,2.3c1.9,1.5,2.9,3.6,2.9,6.3c0,2.2-0.6,4-1.9,5.5c-1.3,1.5-2.9,2.5-5.1,2.9
				l6.4,10.7c0.5,0.7,0.9,1.3,1.3,1.6c0.4,0.3,0.9,0.6,1.5,0.6v1.8h-7.6l-7.9-13.8h-4.5v8.6c0,1.4,0.1,2.3,0.4,2.6
				c0.3,0.4,0.7,0.6,1.4,0.7v1.9H249.1z M257.1,349.4h3.3c3.5,0,5.7-0.4,6.8-1.2c1.1-0.8,1.6-2.1,1.6-4c0-1.6-0.6-2.9-1.7-3.8
				c-1.1-0.9-2.7-1.4-4.8-1.4h-5.3V349.4z"/>
			<path class="st1" d="M279.1,367V365c0.7-0.1,1.2-0.2,1.5-0.5c0.3-0.3,0.4-0.9,0.4-1.7v-23.4c0-0.8-0.1-1.4-0.4-1.7
				c-0.3-0.3-0.8-0.5-1.5-0.5v-2h15.7c3.3,0,5.9,0.6,7.6,1.9c1.7,1.3,2.6,3.2,2.6,5.7c0,1.6-0.4,3-1.3,4.1c-0.9,1.1-2.2,2-4,2.7
				c2.4,0.6,4.2,1.7,5.5,3.1c1.2,1.5,1.8,3.3,1.8,5.5c0,1.6-0.4,3-1.1,4.4c-0.8,1.3-1.8,2.4-3.2,3.1c-0.9,0.5-1.9,0.8-3.2,1
				c-1.3,0.2-3.4,0.3-6.3,0.3h-3.4H279.1z M293.2,339.1h-6v8.6h6.6c1.9,0,3.3-0.3,4.2-1c0.9-0.6,1.3-1.7,1.3-3
				c0-1.6-0.5-2.7-1.4-3.4C296.8,339.4,295.3,339.1,293.2,339.1z M293.6,351.5h-6.4v11.7h5.8c2.8,0,4.8-0.5,6.1-1.4
				c1.3-0.9,1.9-2.3,1.9-4.3c0-1.9-0.6-3.4-1.9-4.5C297.7,352,295.9,351.5,293.6,351.5z"/>
			<path class="st1" d="M311.2,351.3c0-4.8,1.6-8.8,4.8-12c3.2-3.2,7.3-4.7,12.3-4.7c4.9,0,8.9,1.6,12,4.7c3.1,3.1,4.7,7,4.7,11.8
				c0,5-1.6,9-4.7,12.1c-3.1,3.1-7.2,4.7-12.3,4.7c-5,0-9.1-1.5-12.2-4.6C312.7,360.1,311.2,356.1,311.2,351.3z M328.3,338.6
				c-3.1,0-5.6,1.2-7.6,3.5c-1.9,2.3-2.9,5.4-2.9,9.1c0,3.7,1,6.6,2.9,9c2,2.3,4.4,3.5,7.4,3.5c3.2,0,5.7-1.1,7.6-3.4
				c1.9-2.3,2.8-5.3,2.8-9.1c0-3.9-0.9-7-2.7-9.2C334,339.7,331.5,338.6,328.3,338.6z"/>
			<path class="st1" d="M348.1,367V365c0.7-0.1,1.2-0.2,1.5-0.5c0.3-0.3,0.4-0.9,0.4-1.7v-23.4c0-0.8-0.1-1.4-0.4-1.7
				c-0.3-0.3-0.8-0.5-1.5-0.5v-2h10v2c-0.6,0-1.1,0.2-1.5,0.6c-0.3,0.4-0.5,0.9-0.5,1.6v23.7h9.1c1.8,0,3-0.2,3.5-0.7
				c0.6-0.4,1-1.3,1.4-2.7h2.1v7.2H348.1z"/>
			<path class="st1" d="M394,363.1c1.7,0,2.9-0.2,3.6-0.6c0.6-0.4,1.1-1.1,1.3-2.2h2.1v6.6h-26.6V365c0.7-0.1,1.2-0.2,1.5-0.5
				c0.3-0.3,0.4-0.9,0.4-1.7v-23.4c0-0.8-0.1-1.4-0.4-1.7c-0.3-0.3-0.8-0.5-1.5-0.5v-2h25.4v6.3h-2c-0.3-0.9-0.6-1.5-1.1-1.9
				c-0.5-0.3-1.5-0.5-3-0.5h-11.3v8h8.3c1.6,0,2.7-0.1,3.2-0.4c0.5-0.3,0.8-0.8,1-1.6h1.8v7.8h-1.8c-0.1-0.8-0.4-1.4-0.8-1.7
				c-0.4-0.3-1.1-0.4-2.2-0.4h-9.4v12.3H394z"/>
			<path class="st1" d="M403.4,367V365c0.7-0.1,1.2-0.3,1.4-0.5c0.2-0.3,0.4-0.8,0.4-1.7v-23.4c0-0.9-0.1-1.5-0.4-1.7
				s-0.7-0.4-1.4-0.5v-2h10c3.4,0,6,0.2,7.9,0.7c1.9,0.5,3.7,1.2,5.3,2.2c2.3,1.5,4.2,3.5,5.5,6c1.3,2.5,2,5.2,2,8.1
				c0,2.6-0.5,4.9-1.6,7c-1,2.1-2.5,3.8-4.4,5c-1.4,0.9-3,1.6-4.8,2c-1.8,0.4-4.2,0.6-7.3,0.6H403.4z M411.5,362.9h4.6
				c3.8,0,6.7-0.9,8.7-2.8c2-1.9,3-4.5,3-8c0-4-1.3-7.1-3.9-9.4c-2.6-2.3-6.1-3.4-10.6-3.4h-1.2h-0.6V362.9z"/>
			<path class="st1" d="M443.3,355.4l-2.4,6.5c-0.1,0.3-0.2,0.6-0.3,0.9c-0.1,0.3-0.1,0.5-0.1,0.7c0,0.4,0.1,0.8,0.4,1
				c0.3,0.2,0.7,0.4,1.2,0.4v2h-8.4v-2c0.5-0.1,0.9-0.3,1.2-0.6c0.3-0.3,0.6-0.9,0.9-1.7l10.6-27.5h6.4l10.4,27.3
				c0,0.1,0.1,0.2,0.1,0.3c0.4,1.1,1,1.8,1.8,2.1v2h-9.8v-2c0.5,0,0.9-0.1,1.2-0.3c0.3-0.2,0.4-0.5,0.4-0.8c0-0.1,0-0.2-0.1-0.4
				c0-0.1-0.1-0.3-0.1-0.4l-2.8-7.6H443.3z M452.4,351.2l-3.9-10.4l-3.9,10.4H452.4z"/>
		</g>
	</g>
</g>
</svg>
